<?xml version="1.0" encoding="UTF-8"?>
<svg width="34px" height="28px" viewBox="0 0 34 28" version="1.1" xmlns="http://www.w3.org/2000/svg" xmlns:xlink="http://www.w3.org/1999/xlink">
    <title>language-icon-es</title>
    <g id="Spanish-Icon-Option-1" stroke="none" stroke-width="1" fill="none" fill-rule="evenodd">
        <g id="Spanish-Language-Icon-Option-2" transform="translate(-1118.000000, -34.000000)">
            <g id="language-icon-es" transform="translate(1119.000000, 35.000000)">
                <line x1="13" y1="0" x2="13" y2="26" id="Path" stroke="#FFFFFF" stroke-width="1.73333333"></line>
                <line x1="0" y1="13" x2="26" y2="13" id="Path" stroke="#FFFFFF" stroke-width="1.73333333"></line>
                <ellipse id="Oval" stroke="#FFFFFF" stroke-width="1.73333333" stroke-linecap="square" cx="13" cy="13" rx="7.4282" ry="13"></ellipse>
                <line x1="2.002" y1="6.06666667" x2="23.998" y2="6.06666667" id="Path" stroke="#FFFFFF" stroke-width="1.73333333"></line>
                <line x1="2.002" y1="19.9333333" x2="23.998" y2="19.9333333" id="Path" stroke="#FFFFFF" stroke-width="1.73333333"></line>
                <circle id="Oval" stroke="#FFFFFF" stroke-width="1.73333333" stroke-linecap="square" cx="13" cy="13" r="13"></circle>
                <circle id="Oval-Copy" fill="#FFFFFF" cx="25.5" cy="18.5" r="7.5"></circle>
                <path d="M25.9586777,21.8531469 L25.9586777,20.8741259 L22.3739669,20.8741259 L22.3739669,18.8181818 L25.4938017,18.8181818 L25.4938017,17.8587413 L22.3739669,17.8587413 L22.3739669,15.979021 L25.9586777,15.979021 L25.9586777,15 L21,15 L21,21.8531469 L25.9586777,21.8531469 Z M28.7066116,22 C30.0909091,22 31,21.3342657 31,20.4727273 C31,19.6895105 30.5144628,19.1804196 29.2541322,18.9356643 L28.5413223,18.7986014 C27.9524793,18.6811189 27.7768595,18.4853147 27.7768595,18.1818182 C27.7768595,17.848951 28.1177686,17.6041958 28.7066116,17.6041958 C29.2541322,17.6041958 29.6466942,17.8391608 30.0805785,18.4363636 L30.8966942,17.9566434 C30.3491736,17.2223776 29.75,16.820979 28.6652893,16.820979 C27.3636364,16.820979 26.5578512,17.4769231 26.5578512,18.3384615 C26.5578512,19.0825175 27.0433884,19.6111888 28.1177686,19.8167832 L28.8305785,19.9538462 C29.5227273,20.0909091 29.7396694,20.2769231 29.7396694,20.5902098 C29.7396694,20.9426573 29.357438,21.2167832 28.6859504,21.2167832 C27.9834711,21.2167832 27.5289256,20.8741259 27.1157025,20.1692308 L26.268595,20.6685315 C26.6921488,21.4909091 27.5082645,22 28.7066116,22 Z" id="Es" fill="#007856" fill-rule="nonzero"></path>
            </g>
        </g>
    </g>
</svg>